<?xml version="1.0" encoding="UTF-8" standalone="no"?>
<svg xmlns:ffdec="https://www.free-decompiler.com/flash" xmlns:xlink="http://www.w3.org/1999/xlink" ffdec:objectType="shape" height="39.55px" width="59.1px" xmlns="http://www.w3.org/2000/svg">
  <g transform="matrix(1.0, 0.0, 0.0, 1.0, 29.75, 19.8)">
    <path d="M29.3 -18.9 L29.3 18.85 29.05 19.45 28.4 19.7 -28.8 19.7 -29.45 19.45 -29.7 18.85 -29.7 -18.9 -29.45 -19.5 -28.8 -19.75 28.4 -19.75 29.05 -19.5 29.3 -18.9" fill="url(#gradient0)" fill-rule="evenodd" stroke="none"/>
    <path d="M29.3 -18.9 L29.05 -19.5 28.4 -19.75 -28.8 -19.75 -29.45 -19.5 -29.7 -18.9 -29.7 18.85 -29.45 19.45 -28.8 19.7 28.4 19.7 29.05 19.45 29.3 18.85 29.3 -18.9 M28.4 -19.8 L29.05 -19.55 29.35 -18.9 29.35 18.85 29.05 19.5 28.4 19.75 -28.8 19.75 -29.45 19.5 -29.75 18.85 -29.75 -18.9 -29.45 -19.55 -28.8 -19.8 28.4 -19.8" fill="#ee79af" fill-rule="evenodd" stroke="none"/>
    <path d="M-28.85 -19.5 L28.4 -19.5 28.8 -19.3 29.0 -18.9 29.0 18.85 28.8 19.25 28.4 19.45 -28.85 19.45 Q-29.1 19.45 -29.3 19.25 L-29.45 18.85 -29.45 -18.9 -29.3 -19.3 Q-29.1 -19.5 -28.85 -19.5" fill="url(#gradient1)" fill-rule="evenodd" stroke="none"/>
    <path d="M-28.85 -19.5 L28.4 -19.5 28.8 -19.3 29.0 -18.9 29.0 18.85 28.8 19.25 28.4 19.45 -28.85 19.45 Q-29.1 19.45 -29.3 19.25 L-29.45 18.85 -29.45 -18.9 -29.3 -19.3 Q-29.1 -19.5 -28.85 -19.5 Z" ffdec:has-small-stroke="true" ffdec:original-stroke-width="0.5" fill="none" stroke="#373535" stroke-linecap="butt" stroke-linejoin="miter-clip" stroke-miterlimit="4.0" stroke-width="1.0"/>
  </g>
  <defs>
    <linearGradient gradientTransform="matrix(0.0, 0.0044, 0.0044, 0.0, -0.2, 21.15)" gradientUnits="userSpaceOnUse" id="gradient0" spreadMethod="pad" x1="-819.2" x2="819.2">
      <stop offset="0.0" stop-color="#9a2365"/>
      <stop offset="1.0" stop-color="#ffffff"/>
    </linearGradient>
    <radialGradient cx="0" cy="0" gradientTransform="matrix(0.0502, 0.0, 0.0, -0.0502, 10.0, -32.6)" gradientUnits="userSpaceOnUse" id="gradient1" r="819.2" spreadMethod="pad">
      <stop offset="0.0" stop-color="#aaacae"/>
      <stop offset="0.13725490196078433" stop-color="#909294"/>
      <stop offset="0.2980392156862745" stop-color="#797b7d"/>
      <stop offset="0.4627450980392157" stop-color="#666769"/>
      <stop offset="0.6313725490196078" stop-color="#58585a"/>
      <stop offset="0.807843137254902" stop-color="#4f4f50"/>
      <stop offset="1.0" stop-color="#4d4c4e"/>
    </radialGradient>
  </defs>
</svg>
