<?xml version="1.0" encoding="UTF-8" standalone="no"?>
<svg xmlns:ffdec="https://www.free-decompiler.com/flash" xmlns:xlink="http://www.w3.org/1999/xlink" ffdec:objectType="shape" height="36.9px" width="58.6px" xmlns="http://www.w3.org/2000/svg">
  <g transform="matrix(1.0, 0.0, 0.0, 1.0, 29.4, 20.05)">
    <path d="M5.4 -8.0 L10.05 -2.6 20.95 -11.25 29.2 -2.8 29.2 -0.55 20.55 -8.9 9.7 -0.15 5.4 -5.45 -2.9 4.65 -13.45 -5.05 -19.95 2.7 -29.2 -4.0 -29.4 -5.7 -20.0 0.85 -13.35 -6.75 -3.25 2.45 5.4 -8.0 M28.8 -14.0 L28.95 -11.9 23.3 -17.25 8.0 -10.4 -0.15 -17.8 -10.35 -10.15 -22.85 -17.95 -29.05 -14.9 -28.95 -16.85 -22.95 -19.15 -10.9 -12.35 -0.05 -20.05 7.55 -13.4 23.75 -19.3 28.8 -14.0 M2.85 8.9 L-7.1 16.85 -18.45 10.5 -29.2 14.9 -29.2 12.9 -18.2 8.65 -7.0 15.2 2.45 7.5 14.65 12.85 24.65 4.35 29.2 7.95 29.2 9.85 25.15 6.6 14.95 14.9 2.85 8.9" fill="#e6e6e6" fill-rule="evenodd" stroke="none"/>
  </g>
</svg>
