<?xml version="1.0" encoding="UTF-8" standalone="no"?>
<svg xmlns:ffdec="https://www.free-decompiler.com/flash" xmlns:xlink="http://www.w3.org/1999/xlink" ffdec:objectType="shape" height="20.4px" width="23.05px" xmlns="http://www.w3.org/2000/svg">
  <g transform="matrix(1.0, 0.0, 0.0, 1.0, 0.0, 0.0)">
    <path d="M8.65 5.15 Q11.85 2.7 15.15 2.4 18.45 2.05 19.9 3.95 21.35 5.85 20.15 8.95 18.9 12.0 15.7 14.45 12.5 16.85 9.2 17.2 5.9 17.55 4.45 15.65 3.0 13.7 4.25 10.65 5.45 7.55 8.65 5.15" fill="#ffe19e" fill-rule="evenodd" stroke="none"/>
    <path d="M12.65 8.6 L19.0 0.9 23.05 5.5 13.6 9.6 12.65 8.6" fill="#fffaf2" fill-rule="evenodd" stroke="none"/>
    <path d="M9.15 11.25 L9.9 12.45 3.35 20.4 0.0 15.25 9.15 11.25" fill="#fffaf2" fill-rule="evenodd" stroke="none"/>
    <path d="M10.9 9.05 L5.3 5.65 13.7 0.0 12.85 7.75 10.9 9.05" fill="#ffebc0" fill-rule="evenodd" stroke="none"/>
    <path d="M12.05 11.5 L14.05 10.35 19.85 13.85 11.25 18.95 12.05 11.5" fill="#ffebc0" fill-rule="evenodd" stroke="none"/>
    <path d="M10.4 7.45 Q12.0 6.25 13.65 6.1 15.3 5.9 16.0 6.85 16.75 7.8 16.15 9.35 15.55 10.9 13.95 12.1 12.35 13.35 10.7 13.5 9.05 13.7 8.3 12.7 7.6 11.75 8.2 10.2 8.8 8.7 10.4 7.45" fill="#fff4de" fill-rule="evenodd" stroke="none"/>
  </g>
</svg>
