<?xml version="1.0" encoding="UTF-8" standalone="no"?>
<svg xmlns:ffdec="https://www.free-decompiler.com/flash" xmlns:xlink="http://www.w3.org/1999/xlink" ffdec:objectType="shape" height="21.95px" width="24.55px" xmlns="http://www.w3.org/2000/svg">
  <g transform="matrix(1.0, 0.0, 0.0, 1.0, 0.0, 0.0)">
    <path d="M6.3 16.75 Q3.25 14.15 2.55 10.55 1.9 6.95 3.95 4.45 6.1 1.95 9.75 2.05 13.4 2.1 16.45 4.7 19.55 7.25 20.2 10.85 20.9 14.45 18.8 16.95 16.7 19.45 13.05 19.4 9.4 19.35 6.3 16.75" fill="#5c3784" fill-rule="evenodd" stroke="none"/>
    <path d="M10.1 10.5 L0.7 6.6 5.65 0.0 11.25 8.9 10.1 10.5" fill="#f0f0f8" fill-rule="evenodd" stroke="none"/>
    <path d="M13.5 13.3 L14.8 11.95 24.55 15.9 18.9 21.95 13.5 13.3" fill="#f0f0f8" fill-rule="evenodd" stroke="none"/>
    <path d="M10.65 12.45 L7.2 20.3 0.0 13.2 8.95 10.8 10.65 12.45" fill="#c5c6e4" fill-rule="evenodd" stroke="none"/>
    <path d="M13.4 10.1 L11.9 8.3 15.45 0.15 22.1 7.75 13.4 10.1" fill="#c5c6e4" fill-rule="evenodd" stroke="none"/>
    <path d="M8.85 13.7 Q7.3 12.45 7.0 10.65 6.65 8.85 7.7 7.6 8.75 6.35 10.55 6.4 12.35 6.4 13.9 7.7 15.45 9.0 15.8 10.75 16.15 12.55 15.05 13.8 14.05 15.1 12.2 15.05 10.4 15.0 8.85 13.7" fill="#dadaee" fill-rule="evenodd" stroke="none"/>
  </g>
</svg>
