<?xml version="1.0" encoding="UTF-8" standalone="no"?>
<svg xmlns:ffdec="https://www.free-decompiler.com/flash" xmlns:xlink="http://www.w3.org/1999/xlink" ffdec:objectType="shape" height="26.3px" width="26.1px" xmlns="http://www.w3.org/2000/svg">
  <g transform="matrix(1.0, 0.0, 0.0, 1.0, 0.0, 0.0)">
    <path d="M4.4 16.25 Q2.85 12.55 4.3 8.85 5.8 5.15 9.45 3.55 13.1 1.95 16.85 3.45 20.6 4.9 22.2 8.6 23.8 12.3 22.3 16.0 20.8 19.75 17.15 21.3 13.45 22.9 9.75 21.4 6.0 19.95 4.4 16.25" fill="#ffe19e" fill-rule="evenodd" stroke="none"/>
    <path d="M11.85 11.85 L4.5 4.45 13.6 0.0 13.95 10.75 11.85 11.85" fill="#fffaf2" fill-rule="evenodd" stroke="none"/>
    <path d="M13.6 15.9 L15.8 15.1 23.4 22.7 13.9 26.3 13.6 15.9" fill="#fffaf2" fill-rule="evenodd" stroke="none"/>
    <path d="M11.45 13.8 L3.15 20.05 0.0 10.4 10.7 11.55 11.45 13.8" fill="#ffebc0" fill-rule="evenodd" stroke="none"/>
    <path d="M15.7 12.65 L15.25 10.35 23.85 3.85 26.1 13.75 15.7 12.65" fill="#ffebc0" fill-rule="evenodd" stroke="none"/>
    <path d="M8.85 14.35 Q8.05 12.5 8.8 10.65 9.55 8.8 11.4 7.95 13.25 7.15 15.1 7.9 16.95 8.65 17.75 10.5 18.55 12.35 17.8 14.2 17.05 16.05 15.2 16.85 13.35 17.65 11.5 16.9 9.65 16.2 8.85 14.35" fill="#fff4de" fill-rule="evenodd" stroke="none"/>
  </g>
</svg>
